HIERARCHY
ROOT Hips
{
	OFFSET 0.000000 0.000000 0.000000
	CHANNELS 6 Xposition Yposition Zposition Xrotation Yrotation Zrotation
	JOINT LeftUpLeg_virtual
	{
		OFFSET 0.000000 0.000000 0.000000
		CHANNELS 3 Xrotation Yrotation Zrotation
		JOINT LeftUpLeg
		{
			OFFSET 11.394100 -6.187798 -0.413800
			CHANNELS 3 Xrotation Yrotation Zrotation
			JOINT LeftLeg
			{
				OFFSET 0.430247 -32.302673 3.732800
				CHANNELS 3 Xrotation Yrotation Zrotation
				JOINT LeftFoot
				{
					OFFSET -0.430247 -48.264931 -6.423300
					CHANNELS 3 Xrotation Yrotation Zrotation
					JOINT LeftToeBase
					{
						OFFSET 4.230900 -16.068199 23.438400
						CHANNELS 3 Xrotation Yrotation Zrotation
						JOINT LeftToe_End
						{
							OFFSET 4.510700 0.695400 19.974600
							CHANNELS 3 Xrotation Yrotation Zrotation
							End Site
							{
								OFFSET 0 0 0
							}
						}
					}
				}
			}
		}
	}
	JOINT RightUpLeg_virtual
	{
		OFFSET 0.000000 0.000000 0.000000
		CHANNELS 3 Xrotation Yrotation Zrotation
		JOINT RightUpLeg
		{
			OFFSET -11.333700 -6.187798 -0.413800
			CHANNELS 3 Xrotation Yrotation Zrotation
			JOINT RightLeg
			{
				OFFSET -0.430392 -32.302628 3.733000
				CHANNELS 3 Xrotation Yrotation Zrotation
				JOINT RightFoot
				{
					OFFSET 0.430392 -48.264973 -6.423500
					CHANNELS 3 Xrotation Yrotation Zrotation
					JOINT RightToeBase
					{
						OFFSET -4.230900 -16.068199 23.438400
						CHANNELS 3 Xrotation Yrotation Zrotation
						JOINT RightToe_End
						{
							OFFSET -4.510700 0.695400 19.974600
							CHANNELS 3 Xrotation Yrotation Zrotation
							End Site
							{
								OFFSET 0 0 0
							}
						}
					}
				}
			}
		}
	}
	JOINT Spine_virtual
	{
		OFFSET 0.000000 0.000000 0.000000
		CHANNELS 3 Xrotation Yrotation Zrotation
		JOINT Spine
		{
			OFFSET -0.002400 12.777504 0.315300
			CHANNELS 3 Xrotation Yrotation Zrotation
			JOINT Spine1
			{
				OFFSET -0.002067 5.816869 0.032633
				CHANNELS 3 Xrotation Yrotation Zrotation
				JOINT Spine1_split
				{
					OFFSET -0.002067 5.816869 0.032633
					CHANNELS 3 Xrotation Yrotation Zrotation
					JOINT Spine2
					{
						OFFSET -0.002067 5.816869 0.032633
						CHANNELS 3 Xrotation Yrotation Zrotation
						JOINT Neck_virtual
						{
							OFFSET 0.000000 0.000000 0.000000
							CHANNELS 3 Xrotation Yrotation Zrotation
							JOINT Neck
							{
								OFFSET -0.003700 21.199493 -0.826900
								CHANNELS 3 Xrotation Yrotation Zrotation
								JOINT Head
								{
									OFFSET 0.000000 20.442200 4.834800
									CHANNELS 3 Xrotation Yrotation Zrotation
									JOINT HeadTop_End
									{
										OFFSET 0.000000 34.668396 4.968400
										CHANNELS 3 Xrotation Yrotation Zrotation
										End Site
										{
											OFFSET 0 0 0
										}
									}
								}
							}
						}
						JOINT LeftShoulder_virtual
						{
							OFFSET 0.000000 0.000000 0.000000
							CHANNELS 3 Xrotation Yrotation Zrotation
							JOINT LeftShoulder
							{
								OFFSET 3.288150 8.794197 -1.372250
								CHANNELS 3 Xrotation Yrotation Zrotation
								JOINT LeftShoulder_split
								{
									OFFSET 3.288150 8.794197 -1.372250
									CHANNELS 3 Xrotation Yrotation Zrotation
									JOINT LeftArm
									{
										OFFSET 11.953299 -2.279007 -0.146200
										CHANNELS 3 Xrotation Yrotation Zrotation
										JOINT LeftForeArm
										{
											OFFSET 18.448900 0.000000 0.000000
											CHANNELS 3 Xrotation Yrotation Zrotation
											JOINT LeftHand
											{
												OFFSET 29.527798 0.000000 0.000000
												CHANNELS 3 Xrotation Yrotation Zrotation
												End Site
												{
													OFFSET 0 0 0
												}
											}
										}
									}
								}
							}
						}
						JOINT RightShoulder_virtual
						{
							OFFSET 0.000000 0.000000 0.000000
							CHANNELS 3 Xrotation Yrotation Zrotation
							JOINT RightShoulder
							{
								OFFSET -3.249400 8.794197 -1.372250
								CHANNELS 3 Xrotation Yrotation Zrotation
								JOINT RightShoulder_split
								{
									OFFSET -3.249400 8.794197 -1.372250
									CHANNELS 3 Xrotation Yrotation Zrotation
									JOINT RightArm
									{
										OFFSET -11.953299 -2.279007 -0.146200
										CHANNELS 3 Xrotation Yrotation Zrotation
										JOINT RightForeArm
										{
											OFFSET -18.448900 0.000000 0.000000
											CHANNELS 3 Xrotation Yrotation Zrotation
											JOINT RightHand
											{
												OFFSET -29.527802 0.000000 0.000000
												CHANNELS 3 Xrotation Yrotation Zrotation
												End Site
												{
													OFFSET 0 0 0
												}
											}
										}
									}
								}
							}
						}
					}
				}
			}
		}
	}
}
MOTION
Frames: 8
Frame Time: 0.03333333
-12.281167 77.865280 -3.101624 0.000000 0.000000 0.000000 -7.701526 -47.471314 1.474049 -32.322166 3.518925 25.598926 49.576440 -9.603148 10.077473 -13.079792 -10.907362 -23.866151 -4.379066 0.187286 -1.205172 0.000000 0.000000 0.000000 -9.066945 -44.827057 2.055568 -29.996934 -0.865061 -37.341515 55.826179 1.349270 -6.500912 -13.292276 -12.508235 33.537547 -1.508469 0.895138 0.402495 0.000000 0.000000 0.000000 -5.991205 -44.580628 3.143492 9.427917 6.821477 -1.582358 2.195255 0.593943 -2.294494 0.571834 -1.603374 0.824830 0.000000 0.000000 0.000000 2.751003 0.405186 -2.029387 1.112091 13.283674 1.930255 11.248194 17.268573 0.679677 0.000000 0.000000 0.000000 3.048191 0.309622 -2.343726 1.874087 -2.807974 -13.280441 -1.834605 -1.911066 0.628501 -68.800694 -0.577630 -40.203924 178.458800 -76.161773 179.619700 0.000000 0.000000 0.000000 3.804924 0.512425 -2.081560 3.412673 11.325211 -12.488773 -2.606375 0.185861 0.534932 -66.101963 20.258167 88.177476 -16.579439 84.650018 14.317439 0.000000 0.000000 0.000000 
-13.347821 78.445030 -3.395870 0.000000 0.000000 0.000000 -8.365397 -48.953513 1.049738 -31.417398 2.618280 26.020847 49.600369 -9.046644 10.094911 -10.575720 -10.314909 -22.903149 -5.414881 0.311931 -2.447869 0.000000 0.000000 0.000000 -10.004508 -45.537964 1.584350 -30.114307 -1.993645 -37.374450 57.154268 1.040111 -6.264206 -15.367816 -12.050738 32.562920 -0.312593 0.997838 1.312480 0.000000 0.000000 0.000000 -6.685741 -45.402279 2.968261 9.371740 6.571744 -1.592584 2.187127 0.149101 -2.429239 0.620020 -1.234317 0.998683 0.000000 0.000000 0.000000 2.732023 -0.098811 -2.144110 1.609934 13.366642 1.900929 11.639830 17.679166 -0.195936 0.000000 0.000000 0.000000 3.062872 -0.171135 -2.443103 1.961655 -1.522049 -12.902299 -1.587063 -1.904141 0.757211 -68.390875 -1.106090 -41.604926 178.793725 -75.128802 -179.866434 0.000000 0.000000 0.000000 3.779413 0.030905 -2.212327 3.315885 10.468990 -13.333189 -2.323501 0.269647 0.360652 -66.852696 19.209753 88.529087 -19.215513 85.152931 16.805134 0.000000 0.000000 0.000000 
-14.492449 79.612312 -3.542645 0.000000 0.000000 0.000000 -8.770516 -49.760558 0.827972 -31.336491 1.997539 26.259784 49.780686 -8.773145 9.958747 -6.962327 -10.639790 -22.116718 -7.980497 0.379069 -3.099810 0.000000 0.000000 0.000000 -10.709761 -46.194106 1.276112 -29.940264 -3.755095 -37.251807 57.653395 0.606355 -5.868364 -17.074510 -11.539505 31.400067 0.664343 1.186944 1.772927 0.000000 0.000000 0.000000 -7.011868 -46.015999 2.909292 9.220469 6.313146 -1.546306 2.114001 -0.318089 -2.501733 0.592223 -0.839140 0.988442 0.000000 0.000000 0.000000 2.678782 -0.590152 -2.189453 1.863620 13.418962 2.129485 11.772355 18.244306 -1.234794 0.000000 0.000000 0.000000 3.042370 -0.633615 -2.484765 2.021120 -0.818414 -12.479450 -1.187209 -1.590414 0.644513 -66.754560 -1.656820 -43.147753 179.225653 -74.172214 -179.398197 0.000000 0.000000 0.000000 3.668770 -0.431355 -2.276176 3.179833 9.525534 -13.705470 -1.992519 0.197381 0.144073 -67.577332 17.940371 89.012104 -30.554633 86.893790 28.089307 0.000000 0.000000 0.000000 
-15.745206 81.047798 -3.587524 0.000000 0.000000 0.000000 -8.816317 -49.891424 0.948830 -31.964869 2.188861 26.096000 49.834880 -8.564302 9.491071 -3.766469 -11.580809 -21.191005 -10.839921 0.315245 -2.975106 0.000000 0.000000 0.000000 -11.026118 -46.785433 1.232003 -29.469807 -5.707450 -37.027685 57.067040 0.302143 -5.535204 -17.758968 -10.884958 30.892621 0.460814 1.349263 1.763595 0.000000 0.000000 0.000000 -7.008531 -46.393503 3.027769 9.038833 6.118018 -1.482688 2.006241 -0.669572 -2.514259 0.524026 -0.538806 0.909802 0.000000 0.000000 0.000000 2.621592 -0.926516 -2.188964 1.799918 13.416873 2.527258 11.505150 18.822936 -2.252520 0.000000 0.000000 0.000000 2.986664 -0.943839 -2.477549 2.039696 -0.725094 -12.185308 -0.756214 -1.122116 0.263262 -63.770498 -2.199186 -44.644206 179.676691 -73.477338 -179.048095 0.000000 0.000000 0.000000 3.526596 -0.747738 -2.288104 3.010402 8.588531 -13.424295 -1.672407 -0.082765 -0.032625 -67.432429 16.996690 89.372581 -107.645093 88.484056 105.255865 0.000000 0.000000 0.000000 
-17.074682 82.473549 -3.516010 0.000000 0.000000 0.000000 -8.554744 -49.541647 1.370020 -33.217840 3.103193 25.459767 49.900932 -8.454476 8.816068 -1.956092 -12.825474 -20.269712 -12.125932 0.056559 -2.187407 0.000000 0.000000 0.000000 -10.725105 -47.251980 1.559764 -28.552959 -7.576801 -36.464604 55.540663 -0.029671 -5.342726 -17.948388 -10.499101 30.631435 -0.148654 1.409167 1.461079 0.000000 0.000000 0.000000 -6.731084 -46.538156 3.283209 8.905816 6.019957 -1.442256 1.878339 -0.801164 -2.447820 0.434799 -0.324605 0.759600 0.000000 0.000000 0.000000 2.564345 -1.019093 -2.142189 1.381480 13.331286 2.942100 10.890445 19.301884 -3.142357 0.000000 0.000000 0.000000 2.895372 -1.017399 -2.408928 2.022780 -1.164868 -12.075704 -0.526561 -0.581509 -0.085539 -59.615735 -2.480861 -45.816929 -179.704435 -73.135097 -178.587194 0.000000 0.000000 0.000000 3.394858 -0.834874 -2.223667 2.853242 7.829511 -12.502926 -1.385379 -0.364788 -0.157910 -66.046379 16.765529 89.446095 -164.335308 85.622391 162.159332 0.000000 0.000000 0.000000 
-18.458179 83.541611 -3.335743 0.000000 0.000000 0.000000 -8.006830 -49.050631 1.961160 -34.944098 4.385319 24.428213 50.133998 -8.516602 8.070570 -1.795384 -14.114346 -19.576253 -10.855676 -0.332989 -0.922809 0.000000 0.000000 0.000000 -9.895602 -47.514023 2.164676 -27.292582 -9.105943 -35.519203 53.716938 -0.519869 -5.235983 -18.588812 -10.645327 29.956602 0.035212 1.391965 1.111696 0.000000 0.000000 0.000000 -6.227439 -46.545779 3.612780 8.849624 6.055956 -1.435449 1.745531 -0.672760 -2.280555 0.457338 -0.271122 0.642071 0.000000 0.000000 0.000000 2.476514 -0.838247 -2.010168 0.734781 13.169635 3.211782 10.034058 19.585330 -3.790834 0.000000 0.000000 0.000000 2.772739 -0.833596 -2.254428 1.978714 -1.855758 -12.031752 -0.464960 -0.133446 -0.238792 -55.174302 -2.283659 -46.596835 -179.123815 -73.210243 -178.171126 0.000000 0.000000 0.000000 3.313581 -0.646316 -2.070307 2.771997 7.444618 -11.098763 -1.309096 -0.617917 -0.110923 -63.475400 17.564636 89.200242 -173.683870 82.134432 171.808873 0.000000 0.000000 0.000000 
-19.868259 84.111397 -3.096664 0.000000 0.000000 0.000000 -7.261333 -48.941960 2.506090 -36.894787 5.635155 23.308439 50.476385 -8.585964 7.384026 -2.908871 -15.282261 -18.967669 -8.360953 -0.721685 0.716598 0.000000 0.000000 0.000000 -8.826077 -47.515809 2.785391 -25.988108 -10.109343 -34.259300 52.670150 -1.256746 -5.140687 -19.973232 -11.319236 28.674971 0.816954 1.295418 0.907115 0.000000 0.000000 0.000000 -5.658127 -46.462601 3.906339 8.883240 6.211435 -1.477662 1.635127 -0.320100 -2.008993 0.489732 -0.500548 0.724361 0.000000 0.000000 0.000000 2.415051 -0.432254 -1.779367 0.023342 12.985151 3.289807 9.129985 19.637181 -4.164325 0.000000 0.000000 0.000000 2.638865 -0.437927 -1.994529 1.921919 -2.418978 -11.989020 -0.768617 0.063351 -0.275697 -51.311393 -1.360510 -47.029858 -178.759533 -73.421556 -177.938709 0.000000 0.000000 0.000000 3.248802 -0.252131 -1.809983 2.755397 7.468607 -9.489605 -1.434836 -0.700568 0.119865 -60.236319 19.243694 88.650624 -177.068706 79.161209 175.509811 0.000000 0.000000 0.000000 
-21.269415 84.171219 -2.944431 0.000000 0.000000 0.000000 -6.505782 -49.411501 2.771949 -38.327340 6.487968 22.149646 50.873370 -8.418248 6.873702 -4.798177 -15.987270 -18.161987 -6.725452 -1.053050 2.557591 0.000000 0.000000 0.000000 -7.865242 -47.474729 3.162589 -24.908127 -10.440828 -32.832313 52.869557 -1.969836 -5.101534 -21.460227 -12.200886 27.329195 1.127455 1.151289 0.800768 0.000000 0.000000 0.000000 -5.054067 -46.435615 4.003292 8.967067 6.437174 -1.564588 1.535854 0.158727 -1.683110 0.616870 -0.919287 0.834226 0.000000 0.000000 0.000000 2.397938 0.082343 -1.467635 -0.557398 12.839712 3.182793 8.463056 19.582946 -4.316225 0.000000 0.000000 0.000000 2.502516 0.053210 -1.674411 1.864829 -2.618385 -11.751977 -1.255542 0.137584 -0.163249 -48.846532 0.300892 -47.371597 -178.661793 -73.502111 -177.920568 0.000000 0.000000 0.000000 3.186063 0.240203 -1.469768 2.814052 7.882876 -7.981488 -1.801708 -0.658720 0.477053 -57.007470 21.369314 87.872057 -178.648734 76.972871 177.363224 0.000000 0.000000 0.000000 
